<svg xmlns="http://www.w3.org/2000/svg" xmlns:xlink="http://www.w3.org/1999/xlink" width="294.827" height="335.691" viewBox="0 0 294.827 335.691">
  <defs>
    <filter id="Path_140" x="0" y="53.194" width="294.827" height="282.497" filterUnits="userSpaceOnUse">
      <feOffset dy="3" input="SourceAlpha"/>
      <feGaussianBlur stdDeviation="3" result="blur"/>
      <feFlood flood-color="#2a464e" flood-opacity="0.341"/>
      <feComposite operator="in" in2="blur"/>
      <feComposite in="SourceGraphic"/>
    </filter>
    <filter id="Subtraction_5" x="9" y="0" width="276.828" height="132.455" filterUnits="userSpaceOnUse">
      <feOffset dy="3" input="SourceAlpha"/>
      <feGaussianBlur stdDeviation="3" result="blur-2"/>
      <feFlood flood-opacity="0.11" result="color"/>
      <feComposite operator="out" in="SourceGraphic" in2="blur-2"/>
      <feComposite operator="in" in="color"/>
      <feComposite operator="in" in2="SourceGraphic"/>
    </filter>
  </defs>
  <g id="circle_element" data-name="circle element" transform="translate(9)">
    <path id="Polygon_32" data-name="Polygon 32" d="M8.1,0l8.1,11.271H0Z" transform="translate(9.118 125.557) rotate(54)" fill="#2e2e2e"/>
    <path id="Polygon_28" data-name="Polygon 28" d="M8.1,0l8.1,11.271H0Z" transform="matrix(0.588, -0.809, 0.809, 0.588, 258.187, 138.664)" fill="#2e2e2e"/>
    <g transform="matrix(1, 0, 0, 1, -9, 0)" filter="url(#Path_140)">
      <path id="Path_140-2" data-name="Path 140" d="M128.034,4.481c73.833,0,138.429,58.285,138.429,132.56s-64.6,131.937-138.429,131.937-138.4-58.686-138.4-132.961S54.2,4.481,128.034,4.481Z" transform="translate(19.36 54.71)" fill="#fff"/>
    </g>
    <g data-type="innerShadowGroup">
      <path id="Subtraction_5-2" data-name="Subtraction 5" d="M276.828,132.455H0c0-.35,0-.642,0-.918A124.587,124.587,0,0,1,11.242,79.649,129.121,129.121,0,0,1,24.323,57.277a135.073,135.073,0,0,1,17.19-19.362,140.262,140.262,0,0,1,20.65-15.88A143,143,0,0,1,138.4,0a141.159,141.159,0,0,1,52.753,10.259,142.982,142.982,0,0,1,23.46,12.081,141.249,141.249,0,0,1,20.651,16.055,136.794,136.794,0,0,1,17.195,19.534,131.008,131.008,0,0,1,13.091,22.518,125.621,125.621,0,0,1,11.278,52.009Z" transform="translate(0)" fill="#2a464e"/>
      <g transform="matrix(1, 0, 0, 1, -9, 0)" filter="url(#Subtraction_5)">
        <path id="Subtraction_5-3" data-name="Subtraction 5" d="M276.828,132.455H0c0-.35,0-.642,0-.918A124.587,124.587,0,0,1,11.242,79.649,129.121,129.121,0,0,1,24.323,57.277a135.073,135.073,0,0,1,17.19-19.362,140.262,140.262,0,0,1,20.65-15.88A143,143,0,0,1,138.4,0a141.159,141.159,0,0,1,52.753,10.259,142.982,142.982,0,0,1,23.46,12.081,141.249,141.249,0,0,1,20.651,16.055,136.794,136.794,0,0,1,17.195,19.534,131.008,131.008,0,0,1,13.091,22.518,125.621,125.621,0,0,1,11.278,52.009Z" transform="translate(9)" fill="#fff"/>
      </g>
    </g>
  </g>
</svg>
